<?xml version="1.0" encoding="utf-8"?>
<!-- Generator: Adobe Illustrator 16.0.0, SVG Export Plug-In . SVG Version: 6.00 Build 0)  -->
<!DOCTYPE svg PUBLIC "-//W3C//DTD SVG 1.1//EN" "http://www.w3.org/Graphics/SVG/1.1/DTD/svg11.dtd">
<svg version="1.1" id="Layer_1" xmlns="http://www.w3.org/2000/svg" xmlns:xlink="http://www.w3.org/1999/xlink" x="0px" y="0px"
	 width="291.002px" height="290.139px" viewBox="144.962 138.444 291.002 290.139"
	 enable-background="new 144.962 138.444 291.002 290.139" xml:space="preserve">
<path fill="#041230" d="M227.986,376.613l-29.995,51.97l22.304-51.97h-14.209c-19.521,0-34.573-5.164-45.194-15.528
	c-10.62-10.401-15.93-25.344-15.93-44.829v-34.83c0-5.163,2.6-7.765,7.765-7.765h31.495c5.201,0,7.765,2.601,7.765,7.765v32.595
	c0,7.912,1.685,13.516,5.018,16.849c3.333,3.332,8.827,5.017,16.481,5.017h21.864c7.911,0,13.441-1.685,16.664-5.017
	c3.222-3.333,4.797-8.937,4.797-16.849V146.209c0-5.163,2.746-7.765,8.167-7.765h31.094c5.199,0,7.8,2.491,7.8,7.399v99.398
	L227.986,376.613z"/>
<path fill="#041230" d="M296.204,428.583h-31.458c-5.2,0-7.8-2.601-7.8-7.802v-63.103l47.062-81.49l29.992-51.969l-29.992,69.879
	v9.633h0.731c1.978-5.934,5.824-13.587,11.5-22.963l56.29-82.588c3.223-5.2,8.02-7.8,14.431-7.8h36.329
	c2.711,0,4.358,0.806,4.981,2.417c0.622,1.612-0.075,3.626-2.016,6.116l-70.389,97.42l78.52,122.985
	c1.722,2.965,2.052,5.238,0.916,6.849c-1.098,1.611-3.369,2.417-6.849,2.417h-27.027c-8.644,0-14.465-2.6-17.397-7.801
	l-56.692-90.756l-23.328,27.432v63.323C304.006,425.982,301.406,428.583,296.204,428.583L296.204,428.583z"/>
</svg>
