<?xml version="1.0" encoding="utf-8"?>
<!-- Generator: Adobe Illustrator 16.0.0, SVG Export Plug-In . SVG Version: 6.00 Build 0)  -->
<!DOCTYPE svg PUBLIC "-//W3C//DTD SVG 1.1//EN" "http://www.w3.org/Graphics/SVG/1.1/DTD/svg11.dtd">
<svg version="1.1"
	 id="svg4111" xmlns:cc="http://creativecommons.org/ns#" xmlns:dc="http://purl.org/dc/elements/1.1/" xmlns:inkscape="http://www.inkscape.org/namespaces/inkscape" xmlns:rdf="http://www.w3.org/1999/02/22-rdf-syntax-ns#" xmlns:sodipodi="http://sodipodi.sourceforge.net/DTD/sodipodi-0.dtd" xmlns:svg="http://www.w3.org/2000/svg" sodipodi:version="0.32" inkscape:version="0.48.4 r9939" inkscape:output_extension="org.inkscape.output.svg.inkscape"
	 xmlns="http://www.w3.org/2000/svg" xmlns:xlink="http://www.w3.org/1999/xlink" x="0px" y="0px" width="612px" height="620.188px"
	 viewBox="0.05 86.104 612 620.188" enable-background="new 0.05 86.104 612 620.188" xml:space="preserve">
<defs>
	
	
		<inkscape:perspective  sodipodi:type="inkscape:persp3d" inkscape:vp_z="744.09448 : 526.18109 : 1" inkscape:vp_y="0 : 1000 : 0" inkscape:vp_x="0 : 526.18109 : 1" id="perspective4119" inkscape:persp3d-origin="372.04724 : 350.78739 : 1">
		</inkscape:perspective>
</defs>
<sodipodi:namedview  showgrid="false" pagecolor="#ffffff" objecttolerance="10" inkscape:zoom="1.9908778" inkscape:cy="119.46496" inkscape:cx="119.48121" guidetolerance="10" gridtolerance="10000" fit-margin-top="0" fit-margin-left="0" borderopacity="1.0" bordercolor="#666666" id="base" inkscape:window-y="-4" inkscape:window-x="-4" inkscape:window-width="1024" inkscape:window-maximized="0" inkscape:window-height="721" inkscape:pageshadow="2" inkscape:pageopacity="0.0" inkscape:document-units="px" inkscape:current-layer="layer1" fit-margin-bottom="0" fit-margin-right="0">
	</sodipodi:namedview>
<g id="layer1" transform="translate(-169.09021,-178.61151)" inkscape:label="Layer 1" inkscape:groupmode="layer">
	<path id="rect4059" inkscape:connector-curvature="0" d="M169.141,785.631h612v99.271h-612V785.631L169.141,785.631z"/>
	<path id="polyline4061" inkscape:connector-curvature="0" d="M472.582,273.925h103.365l50.658,336.191l51.683-336.191h102.341v459
		h-68.057V387.012l-57.822,345.914h-58.847l-55.264-345.914v345.402h-68.057V273.925"/>
	<path id="path4063" inkscape:connector-curvature="0" d="M330.839,419.762h70.104v-32.238c0-31.726,0-122.809-116.669-122.809
		c-114.11,0-114.11,103.876-114.11,122.809c0,10.234,0,220.545,0,238.455c0,69.592,25.585,115.134,91.596,115.646
		c38.89,0,66.521-24.562,72.15-33.772v24.563l67.545,0.512V484.237H291.438v55.264h39.913c0,0,0,64.475,0,72.663
		c0,36.843-11.769,61.916-46.054,61.916c-34.284,0-45.542-26.608-45.542-61.916c0-22.004,0-211.335,0-225.151
		c0-18.421,0-59.87,45.542-59.87c46.054,0,46.054,42.472,46.054,59.87C330.839,402.363,330.839,419.762,330.839,419.762"/>
</g>
</svg>
