<?xml version="1.0" encoding="utf-8"?>
<!-- Generator: Adobe Illustrator 25.3.0, SVG Export Plug-In . SVG Version: 6.00 Build 0)  -->
<svg version="1.1"
	 id="svg4111" inkscape:output_extension="org.inkscape.output.svg.inkscape" inkscape:version="0.48.4 r9939" sodipodi:version="0.32" xmlns:cc="http://creativecommons.org/ns#" xmlns:dc="http://purl.org/dc/elements/1.1/" xmlns:inkscape="http://www.inkscape.org/namespaces/inkscape" xmlns:rdf="http://www.w3.org/1999/02/22-rdf-syntax-ns#" xmlns:sodipodi="http://sodipodi.sourceforge.net/DTD/sodipodi-0.dtd" xmlns:svg="http://www.w3.org/2000/svg"
	 xmlns="http://www.w3.org/2000/svg" xmlns:xlink="http://www.w3.org/1999/xlink" x="0px" y="0px" viewBox="0 0 119.6 121.3"
	 style="enable-background:new 0 0 119.6 121.3;" xml:space="preserve">
<style type="text/css">
	.st0{fill:#FFFFFF;}
</style>
<defs>
	
		<inkscape:perspective  id="perspective4119" inkscape:persp3d-origin="372.04724 : 350.78739 : 1" inkscape:vp_x="0 : 526.18109 : 1" inkscape:vp_y="0 : 1000 : 0" inkscape:vp_z="744.09448 : 526.18109 : 1" sodipodi:type="inkscape:persp3d">
		</inkscape:perspective>
</defs>
<sodipodi:namedview  bordercolor="#666666" borderopacity="1.0" fit-margin-bottom="0" fit-margin-left="0" fit-margin-right="0" fit-margin-top="0" gridtolerance="10000" guidetolerance="10" id="base" inkscape:current-layer="layer1" inkscape:cx="119.48121" inkscape:cy="119.46496" inkscape:document-units="px" inkscape:pageopacity="0.0" inkscape:pageshadow="2" inkscape:window-height="721" inkscape:window-maximized="0" inkscape:window-width="1024" inkscape:window-x="-4" inkscape:window-y="-4" inkscape:zoom="1.9908778" objecttolerance="10" pagecolor="#ffffff" showgrid="false">
	</sodipodi:namedview>
<g id="layer1" transform="translate(-169.09021,-178.61151)" inkscape:groupmode="layer" inkscape:label="Layer 1">
	<path id="rect4059" inkscape:connector-curvature="0" class="st0" d="M169.1,280.5h119.6v19.4H169.1L169.1,280.5L169.1,280.5z"/>
	<path id="polyline4061" inkscape:connector-curvature="0" class="st0" d="M228.4,180.5h20.2l9.9,65.7l10.1-65.7h20v89.7h-13.3
		v-67.6L264,270.2h-11.5l-10.8-67.6v67.5h-13.3V180.5"/>
	<path id="path4063" inkscape:connector-curvature="0" class="st0" d="M200.7,209h13.7v-6.3c0-6.2,0-24-22.8-24
		c-22.3,0-22.3,20.3-22.3,24c0,2,0,43.1,0,46.6c0,13.6,5,22.5,17.9,22.6c7.6,0,13-4.8,14.1-6.6v4.8l13.2,0.1v-48.6h-21.5v10.8h7.8
		c0,0,0,12.6,0,14.2c0,7.2-2.3,12.1-9,12.1c-6.7,0-8.9-5.2-8.9-12.1c0-4.3,0-41.3,0-44c0-3.6,0-11.7,8.9-11.7c9,0,9,8.3,9,11.7
		C200.7,205.6,200.7,209,200.7,209"/>
</g>
</svg>
